<svg width="1009" height="515" viewBox="0 0 1009 515" fill="none" xmlns="http://www.w3.org/2000/svg">
<path opacity="0.1" d="M441.766 4.92315C487.167 -6.32978 542.437 3.34814 589.637 17.4629C737.878 61.8044 845.876 145.977 931.682 231.731C962.749 262.782 992.259 295.2 1003.94 329.864C1027.72 400.418 965.694 473.458 860.209 499.053C824.337 507.766 784.927 511.339 745.457 513.329C675.271 516.874 602.602 515.467 532.979 502.337C483.327 492.954 436.359 477.861 391.311 461.186C265.502 414.593 150.61 354.086 67.8799 280.174C31.5959 247.756 0.900181 211.209 0.0156943 173.804C-0.868792 136.399 35.6866 98.8137 95.8317 92.4534C120.698 89.8261 147.001 92.5606 172.661 95.3755C210.443 99.5242 248.737 103.887 286.087 102.078C324.672 100.194 374.857 90.1411 381.893 65.5777C389.341 39.2047 396.426 16.1627 441.766 4.92315Z" fill="#FAA835"/>
<path d="M792.263 284.394H749.959V242.689H792.294L792.263 284.394ZM791.651 221.512H750.57C750.57 156.703 812.146 160.49 812.146 119.489C812.146 96.9048 793.67 78.8118 771.096 78.8118C748.521 78.8118 730.051 98.3182 730.051 120.131H689C688.982 109.34 691.092 98.6521 695.212 88.6792C699.331 78.7062 705.377 69.6447 713.004 62.0145C720.631 54.3842 729.688 48.3351 739.657 44.2142C749.626 40.0933 760.309 37.9816 771.096 38.0001C816.44 38.0001 853.191 74.1922 853.191 119.489C853.191 170.757 791.621 176.595 791.621 221.512H791.651Z" fill="#E89136"/>
<path opacity="0.5" d="M528.641 330.257H517.73V319.506H528.641V330.257ZM528.482 314.048H517.902C517.902 297.338 533.773 298.317 533.773 287.738C533.767 286.354 533.489 284.985 532.954 283.708C532.419 282.432 531.638 281.274 530.655 280.3C529.673 279.326 528.508 278.555 527.227 278.032C525.946 277.509 524.575 277.243 523.192 277.25C520.386 277.301 517.71 278.441 515.73 280.431C513.749 282.42 512.62 285.102 512.581 287.909H502C502.07 282.354 504.32 277.049 508.264 273.137C512.208 269.226 517.53 267.022 523.083 267C528.637 266.978 533.976 269.141 537.95 273.021C541.925 276.902 544.215 282.189 544.329 287.744C544.347 300.96 528.482 302.472 528.482 314.048Z" fill="#FEC232"/>
<path opacity="0.5" d="M528.29 107.098H520.382V99.3215H528.29V107.098ZM528.174 95.3443H520.504C520.504 83.2416 532.009 83.9452 532.009 76.2846C532.004 75.2818 531.802 74.2898 531.414 73.3652C531.026 72.4406 530.459 71.6015 529.747 70.8958C529.035 70.1901 528.191 69.6317 527.263 69.2524C526.335 68.8731 525.342 68.6804 524.339 68.6852C522.309 68.7263 520.375 69.5545 518.944 70.9951C517.513 72.4358 516.698 74.3762 516.67 76.407H509C508.984 72.3371 510.584 68.4274 513.45 65.538C516.315 62.6487 520.21 61.0163 524.278 61.0001C528.346 60.9839 532.254 62.5851 535.142 65.4515C538.03 68.3179 539.662 72.2147 539.678 76.2846C539.666 85.8604 528.174 86.9556 528.174 95.3443Z" fill="#FEC232"/>
<path opacity="0.5" d="M846.929 255.816H842.459V251.411H846.929V255.816ZM846.862 249.178H842.501C842.501 242.337 849.003 242.735 849.003 238.403C849.003 237.836 848.89 237.275 848.672 236.752C848.454 236.229 848.134 235.755 847.732 235.356C847.329 234.958 846.851 234.644 846.326 234.431C845.801 234.219 845.239 234.113 844.673 234.119C843.526 234.143 842.433 234.611 841.624 235.425C840.815 236.239 840.353 237.335 840.336 238.482H836C836.051 236.221 836.982 234.069 838.595 232.485C840.208 230.9 842.376 230.009 844.637 230C846.897 229.991 849.072 230.866 850.698 232.438C852.323 234.01 853.271 236.154 853.339 238.415C853.363 243.793 846.862 244.436 846.862 249.178Z" fill="#FEC232"/>
<path opacity="0.5" d="M903.217 384.625H898.746V380.22H903.217V384.625ZM903.15 377.987H898.814C898.814 371.14 905.321 371.544 905.321 367.211C905.313 366.068 904.852 364.975 904.039 364.172C903.226 363.369 902.127 362.922 900.985 362.928C899.838 362.951 898.744 363.418 897.935 364.232C897.125 365.046 896.664 366.143 896.649 367.291H892.312C892.363 365.03 893.294 362.878 894.907 361.294C896.521 359.709 898.688 358.818 900.949 358.809C903.21 358.8 905.384 359.675 907.01 361.247C908.635 362.819 909.583 364.963 909.651 367.224C909.676 372.627 903.174 373.245 903.174 377.987H903.15Z" fill="#FEC232"/>
<path d="M524.563 471.038C524.563 471.038 554.079 469.258 550.599 489.951C550.599 489.951 551.29 493.622 547.975 495.268C547.975 495.268 547.926 493.733 544.947 494.253C543.889 494.435 542.813 494.488 541.743 494.412C540.294 494.311 538.918 493.742 537.822 492.79C537.822 492.79 529.523 489.364 526.3 475.793C526.3 475.793 523.908 472.837 524.006 472.072L528.985 474.202C528.985 474.202 527.284 477.8 528.624 480.785C528.624 480.785 528.783 474.336 529.743 474.483C529.933 474.514 532.33 475.707 532.33 475.707C532.33 475.707 529.4 481.966 531.608 486.519C531.608 486.519 530.77 478.803 533.241 476.16L536.752 478.21C536.752 478.21 533.327 484.677 535.651 489.951C535.651 489.951 535.039 481.856 537.486 478.705L540.666 481.153C540.666 481.153 537.449 487.528 539.412 491.909C539.412 491.909 539.663 482.48 541.351 481.771C541.351 481.771 544.134 484.218 544.556 485.234C544.556 485.234 542.354 489.859 543.718 492.301C543.718 492.301 544.556 486.023 545.247 485.992C545.247 485.992 548.011 490.153 548.305 493.004C548.305 493.004 548.183 488.764 545.914 485.595C545.914 485.595 548.592 486.054 550.158 487.791C550.158 487.791 549.724 484.848 545.235 484.591C545.235 484.591 542.947 481.44 542.33 481.244C542.33 481.244 546.801 480.871 549.51 482.077C549.51 482.077 547.125 479.299 541.51 480.559L538.373 478.001C538.373 478.001 544.262 477.194 546.752 478.087C546.752 478.087 543.883 475.64 537.529 477.42L534.116 475.377C534.116 475.377 539.131 474.294 542.122 474.685C542.122 474.685 538.966 472.984 533.113 474.826L530.666 473.731C530.666 473.731 534.336 473.009 535.419 472.892C536.501 472.776 536.55 472.482 536.55 472.482C534.222 472.092 531.831 472.357 529.645 473.247C529.645 473.247 524.471 471.393 524.563 471.038Z" fill="#FAA835"/>
<path opacity="0.1" d="M544.892 500.604C556.431 500.604 565.785 499.023 565.785 497.073C565.785 495.124 556.431 493.543 544.892 493.543C533.354 493.543 524 495.124 524 497.073C524 499.023 533.354 500.604 544.892 500.604Z" fill="#FEC232"/>
<path d="M426.325 433.022C426.325 433.022 442.967 432.018 441.004 443.686C441.108 444.278 441.021 444.887 440.756 445.426C440.491 445.965 440.062 446.406 439.53 446.685C439.53 446.685 439.499 445.822 437.824 446.116C437.228 446.218 436.622 446.246 436.019 446.201C435.201 446.151 434.422 445.83 433.805 445.29C433.805 445.29 429.133 443.35 427.298 435.702C427.298 435.702 425.952 434.031 426.001 433.603L428.815 434.827C428.815 434.827 427.854 436.858 428.607 438.541C428.607 438.541 428.698 434.9 429.218 434.986C429.328 434.986 430.68 435.689 430.68 435.689C430.68 435.689 429.029 439.22 430.276 441.808C430.276 441.808 429.799 437.458 431.194 435.965L433.169 437.121C433.169 437.121 431.243 440.792 432.558 443.742C432.558 443.742 432.221 439.177 433.591 437.403L435.383 438.798C435.383 438.798 433.548 442.389 434.68 444.861C434.68 444.861 434.821 439.544 435.775 439.146C435.775 439.146 437.34 440.529 437.579 441.098C437.579 441.098 436.356 443.705 437.108 445.082C437.108 445.082 437.579 441.545 437.97 441.527C437.97 441.527 439.53 443.87 439.689 445.479C439.611 443.993 439.147 442.553 438.343 441.3C439.243 441.465 440.075 441.89 440.735 442.524C440.735 442.524 440.496 440.866 437.958 440.719C437.958 440.719 436.668 438.938 436.325 438.834C436.325 438.834 438.845 438.62 440.374 439.299C440.374 439.299 439.028 437.733 435.86 438.443L434.093 436.999C434.093 436.999 437.414 436.546 438.82 437.048C438.82 437.048 437.2 435.665 433.616 436.674L431.695 435.518C433.175 435.195 434.69 435.065 436.203 435.133C436.203 435.133 434.429 434.172 431.127 435.212L429.75 434.6C429.75 434.6 431.824 434.19 432.429 434.129C433.035 434.068 433.071 433.897 433.071 433.897C431.758 433.679 430.409 433.829 429.176 434.331C429.176 434.331 426.277 433.224 426.325 433.022Z" fill="#FAA835"/>
<path opacity="0.1" d="M437.787 449.689C444.293 449.689 449.566 448.796 449.566 447.694C449.566 446.593 444.293 445.7 437.787 445.7C431.281 445.7 426.007 446.593 426.007 447.694C426.007 448.796 431.281 449.689 437.787 449.689Z" fill="#FEC232"/>
<path d="M802.385 404.027C802.385 404.027 822.476 402.803 820.122 416.876C820.242 417.591 820.134 418.326 819.814 418.976C819.493 419.626 818.976 420.159 818.336 420.498C818.336 420.498 818.299 419.452 816.275 419.807C815.554 419.93 814.821 419.965 814.091 419.911C813.106 419.847 812.169 419.46 811.425 418.81C811.425 418.81 805.774 416.478 803.578 407.239C803.578 407.239 801.951 405.226 802.018 404.712L805.407 406.156C805.407 406.156 804.251 408.604 805.162 410.641C805.162 410.641 805.272 406.248 805.92 406.358C806.055 406.358 807.682 407.202 807.682 407.202C807.682 407.202 805.688 411.486 807.192 414.545C807.192 414.545 806.624 409.295 808.306 407.496L810.691 408.885C810.691 408.885 808.361 413.291 809.945 416.882C809.945 416.882 809.535 411.375 811.168 409.228L813.333 410.917C813.333 410.917 811.143 415.255 812.477 418.259C812.477 418.259 812.654 411.847 813.804 411.357C813.804 411.357 815.694 413.027 815.981 413.713C815.981 413.713 814.483 416.864 815.412 418.528C815.412 418.528 815.981 414.245 816.452 414.245C816.452 414.245 818.336 417.078 818.532 419.018C818.44 417.224 817.882 415.486 816.911 413.976C817.998 414.182 819.001 414.701 819.798 415.469C819.798 415.469 819.504 413.468 816.44 413.291C816.44 413.291 814.886 411.143 814.471 411.014C814.471 411.014 817.529 410.757 819.363 411.577C819.363 411.577 817.736 409.693 813.914 410.549L811.779 408.806C811.779 408.806 815.785 408.255 817.486 408.861C817.486 408.861 815.529 407.19 811.205 408.408L808.881 407.019C808.881 407.019 812.293 406.285 814.33 406.548C814.33 406.548 812.183 405.391 808.214 406.646L806.55 405.899C806.55 405.899 809.052 405.404 809.786 405.33C810.52 405.257 810.556 405.049 810.556 405.049C808.973 404.784 807.347 404.964 805.859 405.569C805.859 405.569 802.324 404.259 802.385 404.027Z" fill="#FAA835"/>
<path opacity="0.1" d="M816.22 424.157C824.073 424.157 830.44 423.081 830.44 421.753C830.44 420.425 824.073 419.348 816.22 419.348C808.366 419.348 802 420.425 802 421.753C802 423.081 808.366 424.157 816.22 424.157Z" fill="#FEC232"/>
<path opacity="0.1" d="M654.726 503.636C620.083 503.636 592 500.866 592 497.45C592 494.033 620.083 491.264 654.726 491.264C689.369 491.264 717.452 494.033 717.452 497.45C717.452 500.866 689.369 503.636 654.726 503.636Z" fill="#FEC232"/>
<path d="M592.006 310.805C592.391 308.651 592.614 306.47 592.673 304.283C592.673 301.658 596.238 299.332 596.238 299.332C596.238 299.332 598.44 294.236 599.908 293.483C601.376 292.73 605.908 286.061 605.908 286.061C605.96 284.745 606.439 283.483 607.272 282.463C608.629 280.678 609.869 278.805 610.984 276.859C611.596 276.112 611.29 275.586 612.207 271.235C612.256 271.009 612.311 270.789 612.379 270.581C612.379 270.483 612.44 270.397 612.476 270.299C611.503 269.322 610.824 268.091 610.518 266.745C610.212 265.4 610.291 263.996 610.746 262.694C610.91 262.176 611.21 261.711 611.614 261.348C612.648 260.503 614.299 260.852 615.363 260.05L614.232 255.045C613.963 253.822 613.822 252.274 614.892 251.613C615.294 251.422 615.717 251.28 616.152 251.191C617.987 250.579 619.051 248.639 619.528 246.773C619.987 244.975 620.111 243.109 619.895 241.266C619.687 239.492 619.167 237.766 618.978 235.986C618.633 232.692 619.425 229.38 621.222 226.6C621.921 225.4 622.951 224.427 624.189 223.797C625.32 223.289 626.635 223.185 627.693 222.573C629.968 221.123 629.852 217.679 631.669 215.702C633.485 213.726 636.702 213.732 639.35 214.411C641.999 215.09 644.635 216.247 647.35 215.959C649.099 215.763 650.738 214.968 652.494 214.784C652.996 214.737 653.502 214.759 653.998 214.852V214.797C655.295 215.029 656.487 215.751 656.793 216.981C656.862 217.274 656.891 217.574 656.879 217.874C656.879 218.59 656.708 219.337 656.695 220.022C656.673 220.294 656.705 220.568 656.79 220.828C656.875 221.087 657.011 221.327 657.191 221.533C657.539 221.907 658.053 222.102 658.414 222.488C658.561 222.635 658.677 222.811 658.753 223.005C658.83 223.198 658.866 223.405 658.86 223.614C658.86 224.703 657.503 225.663 656.591 226.104H656.555C656.799 226.349 657.044 226.606 657.27 226.869C659.883 229.82 661.323 233.628 661.319 237.57C661.297 240.755 660.345 243.863 658.58 246.513C656.816 249.164 654.315 251.24 651.387 252.488L651.515 252.885C651.773 253.672 652.073 254.444 652.414 255.198C653.047 254.985 653.718 254.913 654.382 254.987C655.045 255.061 655.685 255.28 656.255 255.627C658.004 256.85 661.423 256.752 662.334 256.526C663.246 256.3 672.732 255.1 673.496 255.4C674.261 255.7 675.771 254.354 676.756 256.153C677.741 257.952 678.199 258.925 679.202 259.377C680.205 259.83 681.936 261.25 681.704 261.55C681.471 261.849 684.211 263.648 684.211 263.648C684.211 263.648 686.566 266.096 687.93 266.42C689.294 266.744 692.181 268.598 692.181 268.598L695.526 271.217C695.526 271.217 698.027 271.596 697.269 269.871C696.511 268.145 698.639 265.973 698.639 265.973C698.639 265.973 702.89 257.352 702.89 255.572C702.89 253.791 706.382 246.198 706.382 246.198L706.81 246.155L707.006 245.598C707.648 243.793 708.48 241.578 709.116 240.281C710.339 237.803 711.091 237.546 711.091 237.546C711.091 237.546 725.819 226.483 735.384 229.855C744.95 233.226 717.923 243.273 715.495 244.325C714.645 244.693 714.033 245.88 713.605 247.269C715.759 248.308 717.573 249.94 718.834 251.974C718.834 251.974 712.987 264.939 712.834 268.164C712.681 271.388 708.81 280.401 708.81 280.401C708.81 280.401 707.367 287.077 699.55 286.697C699.55 286.697 688.768 288.68 686.413 286.697C684.058 284.715 681.936 283.161 680.792 282.934C679.951 282.658 679.212 282.136 678.67 281.435C678.67 281.435 682.236 303.921 683.985 305.873C685.734 307.825 701.189 333.071 695.642 337.587C691.249 340.99 686.606 344.058 681.753 346.765C681.282 346.997 679.869 344.641 677.851 342.971C677.851 343.393 677.851 343.821 677.851 344.274C677.814 353.257 676.627 366.913 674.988 369.973C672.542 374.47 673.545 383.165 673.545 383.165C672.259 383.77 670.862 384.106 669.441 384.15C669.368 384.443 669.282 384.762 669.203 385.068C667.863 390.128 665.692 397.954 664.585 400.034C662.915 403.185 661.704 413.159 661.704 413.159C661.704 413.159 660.714 422.948 661.093 424.325C661.24 424.845 660.597 428.92 659.588 434.115C660.2 441.145 661.362 454.698 661.558 459.599C661.558 459.691 661.558 459.783 661.558 459.869V459.954C661.555 460.009 661.555 460.064 661.558 460.119C661.558 460.23 661.558 460.328 661.558 460.419C661.577 460.728 661.564 461.037 661.521 461.343C661.445 461.81 661.481 462.288 661.625 462.738C662.058 464.093 662.608 465.408 663.27 466.666C663.549 467.285 663.794 467.918 664.004 468.563C664.616 468.833 665.362 469.487 665.778 471.084C666.536 474.009 667.674 482.098 667.674 482.098C667.674 482.098 668.132 487.048 669.037 488.174C669.943 489.3 670.872 496.342 664.408 497.242C657.943 498.141 655.148 493.815 655.148 493.815L655.374 474.186V474.15C655.244 473.985 655.131 473.806 655.038 473.617V473.568C654.995 473.477 654.946 473.379 654.903 473.269L654.848 473.122L654.75 472.883C654.754 472.855 654.754 472.826 654.75 472.797C654.123 470.917 653.935 468.918 654.2 466.954V466.856V466.703C654.2 466.654 654.2 466.599 654.2 466.55V466.244C654.2 466.208 654.2 466.165 654.2 466.128C654.2 465.998 654.188 465.863 654.163 465.724C654.163 465.724 654.163 465.675 654.163 465.651L654.127 465.412V465.308C654.127 465.229 654.127 465.149 654.078 465.063C654.08 465.043 654.08 465.023 654.078 465.002C654.017 464.721 653.943 464.39 653.864 464.121V464.054L653.772 463.76C653.68 463.448 653.576 463.148 653.466 462.818V462.757C653.466 462.659 653.399 462.561 653.362 462.469V462.432C653.252 462.133 653.136 461.82 653.026 461.563L652.995 461.484L652.897 461.239L652.867 461.166L652.634 460.621L650.842 466.159C650.842 466.159 649.851 470.283 650.384 471.256C650.916 472.228 649.772 476.279 649.02 476.352L649.723 481.449C650.103 484.26 650.33 487.089 650.402 489.924C650.451 490.248 650.5 490.535 650.536 490.731C651.026 493.344 649.851 497.395 649.851 497.395C643.858 504.486 636.714 497.945 636.714 497.945C636.714 497.945 635.882 494.194 636.714 493.448C637.546 492.702 637.173 489.997 637.173 489.997C637.173 489.997 636.794 483.322 636.72 478.451C636.647 473.581 640.702 469.273 640.702 469.273L640.928 469.475C641.668 467.566 642.512 465.339 642.335 464.341C642.029 462.616 643.173 444.401 643.173 444.401C642.75 439.517 642.66 434.611 642.904 429.716C642.806 428.89 642.714 428.076 642.622 427.268C642.164 423.352 641.791 420.005 641.644 418.249V418.041C641.607 417.57 641.589 417.234 641.595 417.074C641.595 416.463 641.595 415.765 641.534 415C641.393 412.895 641.063 410.552 641.063 410.552L639.473 400.878C639.473 400.878 638.249 396.155 636.506 393.536L636.298 393.205C636.231 393.089 636.164 392.961 636.09 392.826L636.06 392.771C635.993 392.643 635.919 392.508 635.852 392.367L635.821 392.312C635.577 391.829 635.314 391.272 635.038 390.66C635.038 390.611 634.996 390.568 634.977 390.519L634.769 390.054C634.769 389.993 634.72 389.932 634.69 389.871C634.659 389.81 634.561 389.559 634.494 389.406C634.464 389.344 634.437 389.281 634.415 389.216C634.335 389.033 634.249 388.843 634.17 388.647L634.054 388.366C633.999 388.225 633.938 388.084 633.876 387.943L633.73 387.57C633.687 387.478 633.65 387.387 633.613 387.295L633.448 386.873C633.448 386.811 633.393 386.744 633.369 386.683C632.935 385.6 632.519 384.529 632.146 383.556C632.029 383.25 631.913 382.944 631.809 382.675C627.919 382.914 625.277 383.128 625.277 383.128C625.277 383.128 624.054 374.36 624.446 368.59C624.702 364.65 623.968 359.693 623.485 356.964C623.43 356.665 623.381 356.395 623.332 356.151L623.228 356.236C621.326 357.735 619.962 352.785 619.962 352.785C619.962 352.785 620.476 348.166 621.186 342.567L621.259 342.01C620.163 342.244 619.054 342.414 617.938 342.518C617.938 342.518 617.326 342.463 616.489 342.359C614.171 343.702 611.724 344.808 609.186 345.663L605.143 338.198C604.384 336.651 603.494 335.171 602.483 333.775C601.26 332.276 596.942 327.478 597.015 326.579C597.089 325.68 595.572 320.503 594.055 318.178C592.538 315.853 591.933 311.178 592.006 310.805ZM608.862 316.502C610.458 317.175 611.975 320.925 612.048 322.051C612.122 323.177 613.798 328.121 615.541 328.721C617.149 329.271 620.219 332.098 620.709 332.551C621.21 332.594 621.779 332.661 622.372 332.759C623.039 328.029 623.699 324.113 624.121 323.324C625.345 321.072 622.782 313.877 622.782 313.877C622.782 313.877 622.531 306.608 620.947 304.882C619.363 303.157 619.724 298.806 619.724 298.806C619.724 298.806 619.345 297.007 619.192 296.187C619.039 295.368 616.935 296.187 616.917 296.187C616.917 296.187 612.819 298.433 612.207 301.804C611.596 305.176 607.119 311.025 607.119 311.025C607.119 311.025 607.804 313.051 607.119 314.085C606.434 315.119 607.266 315.828 608.862 316.502Z" fill="url(#paint0_linear)"/>
<path d="M718.663 252.433C717.416 250.375 715.591 248.731 713.415 247.706C711.24 246.681 708.81 246.32 706.431 246.669V255.425H711.746L715.905 254.372L718.663 252.433Z" fill="#4C4981"/>
<path opacity="0.1" d="M718.663 252.433C717.416 250.375 715.591 248.731 713.415 247.706C711.24 246.681 708.81 246.32 706.431 246.669V255.425H711.746L715.905 254.372L718.663 252.433Z" fill="black"/>
<path d="M706.033 248.988L712.547 253.552C712.547 253.552 712.602 252.641 712.767 251.393C713.091 249.031 713.819 245.488 715.391 244.803C717.782 243.75 744.405 233.728 734.962 230.356C725.519 226.985 711.03 238.035 711.03 238.035C711.03 238.035 710.284 238.292 709.091 240.758C708.48 242.055 707.642 244.264 707.012 246.069C706.431 247.697 706.033 248.988 706.033 248.988Z" fill="#FFD9B1"/>
<path d="M653.998 256.018L653.258 255.669L651.179 258.044L652.879 261.672L655.778 260.509L655.105 257.609L653.998 256.018Z" fill="#4C4981"/>
<path d="M663.851 468.527C663.851 468.527 665.723 468.306 666.469 471.225C667.215 474.144 668.34 482.239 668.34 482.239C668.34 482.239 668.787 487.176 669.686 488.302C670.585 489.428 671.478 496.458 665.123 497.352C658.769 498.245 655.998 493.931 655.998 493.931L656.224 474.309L663.851 468.527Z" fill="#444053"/>
<path d="M641.674 469.408C641.674 469.408 637.674 473.691 637.748 478.549C637.821 483.407 638.2 490.071 638.2 490.071C638.2 490.071 638.567 492.769 637.748 493.515C636.928 494.262 637.748 498.006 637.748 498.006C637.748 498.006 644.781 504.535 650.689 497.456C650.689 497.456 651.839 493.411 651.362 490.805C650.885 488.198 649.552 476.481 649.552 476.481L641.674 469.408Z" fill="#444053"/>
<path d="M631.766 379.934C631.766 379.934 635.803 391.229 637.528 393.848C639.252 396.467 640.439 401.19 640.439 401.19L642.011 410.84C642.318 412.997 642.493 415.171 642.537 417.35C642.463 419.522 646.426 451.168 646.426 451.168L652.708 459.177C652.708 459.177 655.472 464.788 655.026 467.131C654.579 469.475 655.325 473.195 656.249 474.315C656.249 474.315 656.396 481.657 656.622 483.291C656.848 484.925 655.796 489.581 656.622 490.401C657.448 491.221 668.438 490.854 668.738 489.501C669.037 488.149 667.392 481.645 667.392 481.645L666.42 475.361C666.42 475.361 664.475 471.922 664.921 470.797C665.368 469.671 664.102 467.058 664.028 466.832C663.955 466.605 661.931 462.94 662.304 461.521C662.677 460.101 659.949 429.911 659.949 429.911L652.249 375.816L631.766 379.934Z" fill="#F8D0A7"/>
<path opacity="0.1" d="M631.766 379.934C631.766 379.934 632.378 381.635 633.216 383.868C634.549 387.393 636.47 392.245 637.528 393.848C639.246 396.467 640.445 401.19 640.445 401.19L642.017 410.846C642.321 413.003 642.494 415.177 642.537 417.356C642.537 418.213 643.112 423.677 643.846 429.973C644.977 439.597 646.426 451.174 646.426 451.174L652.708 459.183C652.708 459.183 653.026 459.795 653.423 460.762C654.212 462.598 655.325 465.577 655.026 467.113C654.579 469.432 655.325 473.171 656.249 474.296C656.249 474.296 656.402 481.639 656.622 483.273C656.842 484.906 655.796 489.556 656.622 490.382C657.448 491.209 668.438 490.835 668.738 489.489C669.037 488.143 667.392 481.633 667.392 481.633L666.42 475.343C666.42 475.343 664.475 471.904 664.927 470.778C665.38 469.652 664.102 467.04 664.028 466.813C663.955 466.587 661.931 462.922 662.304 461.502C662.591 460.419 661.08 442.693 660.377 434.286C660.139 431.643 659.986 429.924 659.986 429.924L653.362 383.385L652.824 379.634L652.286 375.828L631.766 379.934Z" fill="#FFD9B1"/>
<path d="M638.494 492.463C638.427 493.289 649.044 494.488 650.561 493.589C652.078 492.689 650.561 481.541 650.561 481.541L649.87 476.456C650.61 476.377 651.735 472.338 651.215 471.366C650.695 470.393 651.662 466.281 651.662 466.281L653.423 460.774L654.5 457.403C656.249 453.542 658.781 442.528 660.353 434.305C661.343 429.141 661.973 425.072 661.833 424.551C661.46 423.205 662.444 413.403 662.444 413.403C662.444 413.403 663.668 403.448 665.282 400.309C666.377 398.229 668.511 390.415 669.833 385.373C670.505 382.785 670.97 380.925 670.97 380.925C670.97 380.925 659.668 379.977 652.812 379.646C649.662 379.493 647.448 379.475 647.705 379.732C647.962 379.989 648.029 381.36 648.017 383.342C647.986 388.476 647.271 397.507 646.512 399.936C645.466 403.301 644.42 413.397 644.867 414.376C645.313 415.355 645.167 421.859 645.167 421.859C644.396 424.502 643.952 427.228 643.846 429.979C643.606 434.852 643.692 439.735 644.102 444.596C644.102 444.596 642.983 462.781 643.283 464.5C643.583 466.22 640.892 471.61 640.892 472.657C640.892 473.703 640.145 480.813 640.145 480.813C640.145 480.813 638.543 491.643 638.494 492.463Z" fill="#FFD9B1"/>
<path d="M632.592 273.903L633.876 275.292L634.714 276.198L639.607 281.46L652.249 282.885L658.977 281.087L660.64 280.64C660.64 280.64 660.64 277.262 660.34 273.212C659.912 268.017 658.891 261.709 656.451 259.989C655.229 259.032 654.253 257.797 653.607 256.385C653.119 255.412 652.71 254.401 652.384 253.363C652.335 253.228 652.298 253.1 652.255 252.965C651.705 251.152 651.308 249.295 651.069 247.415C651.069 247.415 649.454 246.522 647.209 245.482C641.356 242.747 631.247 238.972 634.763 247.415C635.28 248.652 635.721 249.919 636.084 251.209C636.139 251.399 636.188 251.588 636.231 251.772C637.405 256.471 636.629 259.322 635.754 260.895C635.606 261.167 635.436 261.427 635.246 261.672C635.008 262 634.721 262.291 634.396 262.535L632.941 271.78L632.818 272.545L632.592 273.903Z" fill="#FFD9B1"/>
<path opacity="0.1" d="M634.757 247.868C635.424 249.471 634.433 246.559 634.757 247.868C637.424 249.765 643.705 255.168 647.234 255.168C649.619 255.168 650.335 254.733 652.377 253.809C651.759 251.873 651.319 249.884 651.062 247.868C651.062 247.868 629.895 236.194 634.757 247.868Z" fill="black"/>
<path d="M629.369 238.035C629.372 242.065 630.865 245.951 633.56 248.946C636.255 251.94 639.962 253.832 643.968 254.256C644.531 254.311 645.099 254.348 645.674 254.348C648.899 254.348 652.052 253.391 654.733 251.599C657.414 249.806 659.504 247.259 660.738 244.278C661.972 241.297 662.295 238.017 661.666 234.853C661.037 231.689 659.484 228.782 657.204 226.501C654.923 224.219 652.018 222.666 648.855 222.036C645.692 221.407 642.414 221.73 639.434 222.965C636.455 224.199 633.909 226.29 632.117 228.973C630.325 231.655 629.369 234.809 629.369 238.035Z" fill="#FFD9B1"/>
<path opacity="0.1" d="M627.051 310.346L629.375 316.41C629.375 316.41 631.265 316.489 634.213 316.581C644.164 316.899 666.09 317.303 667.068 314.745C667.288 314.097 667.403 313.417 667.411 312.732C667.539 308.835 665.723 302.851 665.723 302.851C665.723 302.851 664.677 290.876 664.677 290.356C664.677 289.836 665.576 281.448 665.576 281.448L663.778 274.717L658.769 271.199C658.769 271.199 656.524 274.644 655.179 274.937C653.833 275.231 652.035 276.889 652.035 276.889C652.035 276.889 647.625 279.581 646.2 278.082C644.775 276.583 633.711 269.999 633.711 269.999L627.877 276.436L627.051 310.346Z" fill="black"/>
<path d="M627.051 311.276L629.375 317.334C629.375 317.334 631.265 317.419 634.213 317.511H634.5C635.772 317.554 637.228 317.597 638.781 317.627C646.69 317.811 657.582 317.86 663.276 317.015C665.417 316.71 666.817 316.269 667.05 315.669C667.179 315.309 667.269 314.935 667.319 314.556C667.356 314.274 667.38 313.944 667.392 313.656C667.521 309.759 665.704 303.775 665.704 303.775C665.704 303.775 664.658 291.8 664.658 291.28C664.658 290.76 665.557 282.371 665.557 282.371L663.759 275.641L660.316 273.23L658.75 272.129C658.224 272.917 657.65 273.673 657.032 274.393C656.549 275.041 655.903 275.55 655.16 275.867C653.809 276.167 652.017 277.819 652.017 277.819C652.017 277.819 647.607 280.511 646.182 279.012C645.099 277.868 638.372 273.75 635.265 271.872C634.311 271.291 633.693 270.93 633.693 270.93L632.91 271.798L627.858 277.366L627.051 311.276Z" fill="white"/>
<path opacity="0.1" d="M706.033 248.988L712.547 253.552C712.547 253.552 712.602 252.641 712.767 251.393C709.55 250.034 707.593 247.03 707.03 246.069C706.431 247.697 706.033 248.988 706.033 248.988Z" fill="black"/>
<path d="M683.147 264.48L684.566 264.101C684.566 264.101 686.89 266.549 688.236 266.873C689.581 267.197 692.419 269.039 692.419 269.039L695.716 271.658C695.716 271.658 698.162 272.037 697.434 270.312C696.706 268.586 698.78 266.42 698.78 266.42C698.78 266.42 702.969 257.817 702.969 256.018C702.969 254.219 706.431 246.669 706.431 246.669C706.431 246.669 710.773 255.125 718.7 252.433C718.7 252.433 712.938 265.374 712.792 268.592C712.645 271.811 708.828 280.787 708.828 280.787C708.828 280.787 707.403 287.45 699.703 287.077C699.703 287.077 689.08 289.053 686.762 287.077C684.444 285.1 682.352 283.546 681.257 283.32C680.163 283.093 679.166 281.827 679.166 281.827V272.93L683.147 264.48Z" fill="#E89136"/>
<path opacity="0.1" d="M696.462 272.93C696.462 272.93 694.59 279.893 695.789 280.64L696.462 272.93Z" fill="black"/>
<path opacity="0.1" d="M634.213 317.48C644.164 317.799 666.09 318.196 667.068 315.645C667.287 314.996 667.403 314.317 667.411 313.632L634.904 315.345L634.213 317.48Z" fill="black"/>
<path opacity="0.1" d="M631.766 379.934C631.766 379.934 632.378 381.635 633.216 383.868C637.344 383.617 642.812 383.354 648.004 383.318C649.839 383.318 651.637 383.318 653.338 383.379C656.946 383.489 660.065 383.783 662.053 384.346C664.566 385.12 667.193 385.459 669.82 385.349C670.493 382.761 670.958 380.901 670.958 380.901C670.958 380.901 659.655 379.952 652.799 379.622L652.261 375.816L631.766 379.934Z" fill="black"/>
<path d="M623.014 352.547L624.286 355.239C624.286 355.239 624.464 356.041 624.69 357.313C625.167 360.054 625.913 364.998 625.632 368.939C625.259 374.703 626.458 383.452 626.458 383.452C626.458 383.452 653.98 381.133 662.053 383.452C670.126 385.771 674.102 383.452 674.102 383.452C674.102 383.452 673.123 374.776 675.52 370.285C677.153 367.225 678.303 353.569 678.34 344.586C678.34 340.444 678.132 337.305 677.612 336.669C675.967 334.65 668.94 314.446 668.94 314.446L667.337 314.531L663.056 314.758L638.714 316.043L634.892 316.245L634.488 317.468L623.014 352.547Z" fill="#595854"/>
<path d="M610.899 343.565L610.672 345.963C610.672 345.963 622.727 342.035 622.115 337.207C621.504 332.38 622.115 332.924 622.115 332.924L612.428 333.744L610.899 343.565Z" fill="#4C4981"/>
<path opacity="0.1" d="M610.899 343.565L610.672 345.963C610.672 345.963 622.727 342.035 622.115 337.207C621.504 332.38 622.115 332.924 622.115 332.924L612.428 333.744L610.899 343.565Z" fill="black"/>
<path opacity="0.1" d="M688.419 274.864C687.188 275.91 685.737 276.665 684.175 277.073C684.627 276.974 685.048 276.764 685.398 276.461C686.26 275.849 687.08 275.182 687.912 274.533C688.584 274.007 689.422 273.132 690.248 272.918C689.707 273.628 689.094 274.28 688.419 274.864Z" fill="black"/>
<path opacity="0.1" d="M688.236 278.015C687.848 278.453 687.534 278.951 687.306 279.49C686.92 281.012 686.943 282.61 687.373 284.121L689.306 279.459C689.642 278.664 689.979 277.868 690.382 277.109C690.56 276.785 691.673 275.433 691.544 275.151C691.202 274.356 688.597 277.568 688.236 278.015Z" fill="black"/>
<path opacity="0.1" d="M634.311 303.836C632.993 303.676 631.761 303.1 630.794 302.19C632.782 302.441 634.665 303.224 636.622 303.634C638.44 304.056 640.344 303.88 642.054 303.132C639.803 304.234 636.708 304.27 634.311 303.836Z" fill="black"/>
<path opacity="0.1" d="M639.931 290.136C640.288 290.189 640.65 290.099 640.94 289.885C642.433 289.029 643.905 288.135 645.356 287.205C646.769 286.294 648.475 285.37 649.68 284.219C646.714 286.899 643.95 289.163 639.931 290.136Z" fill="black"/>
<path opacity="0.1" d="M635.785 306.008C635.001 306.043 634.216 305.98 633.448 305.818C632.672 305.657 631.985 305.206 631.528 304.558C631.805 304.494 632.097 304.54 632.341 304.686C634.711 305.684 637.314 305.996 639.852 305.586C638.635 306.106 637.075 306.002 635.785 306.008Z" fill="black"/>
<path opacity="0.1" d="M649.949 340.75C651.507 341.22 653.107 341.533 654.726 341.686C655.986 341.744 657.249 341.72 658.506 341.613L664.622 341.227L667.68 341.031C668.041 341.031 669.514 341.031 668.787 340.303C668.42 339.948 666.377 340.175 665.851 340.156C664.836 340.124 663.816 340.105 662.793 340.101C660.769 340.101 658.738 340.101 656.714 340.224C654.445 340.334 652.212 340.505 649.949 340.75Z" fill="black"/>
<path opacity="0.1" d="M657.038 343.779C658.078 343.736 659.417 344.354 660.487 344.488C661.685 344.63 662.891 344.677 664.096 344.629C666.479 344.572 668.834 344.091 671.05 343.21C666.383 343.448 661.704 343.589 657.038 343.779Z" fill="black"/>
<path opacity="0.1" d="M670.138 346.985C669.686 347.076 669.24 347.199 668.805 347.352C666.224 348.086 663.478 347.438 660.854 346.789C661.509 347.774 662.689 348.196 663.869 348.466C665.789 348.952 667.791 349.025 669.741 348.68C670.352 348.557 671.888 348.337 672.187 347.701C672.689 346.765 670.713 346.893 670.138 346.985Z" fill="black"/>
<path opacity="0.1" d="M655.668 351.812C654.894 351.971 654.13 352.175 653.38 352.424C650.475 353.146 647.46 352.155 644.543 351.488C641.036 350.691 637.439 350.358 633.846 350.497C634.488 350.497 635.509 351.06 636.139 351.25C636.965 351.5 637.803 351.733 638.641 351.941C640.286 352.345 641.956 352.675 643.638 352.914C647.033 353.405 650.469 353.555 653.894 353.361C655.46 353.275 658.175 353.434 659.515 352.645C658.357 351.956 657.006 351.664 655.668 351.812Z" fill="black"/>
<path opacity="0.1" d="M654.573 259.53C654.573 259.53 654.426 266.42 655.545 269.565C655.9 270.544 656.451 272.349 657.05 274.374C657.704 276.62 658.42 279.135 658.97 281.105C659.521 283.075 659.888 284.397 659.888 284.397C659.888 284.397 662.414 304.98 663.068 314.788C663.068 314.96 663.068 315.137 663.105 315.302C663.142 315.853 663.203 316.428 663.294 317.022C664.75 326.763 673.147 341.784 675.967 342.983C676.846 343.387 677.649 343.94 678.34 344.617C678.34 340.475 678.132 337.336 677.612 336.699C675.967 334.68 668.94 314.476 668.94 314.476L667.337 314.562C667.374 314.28 667.398 313.95 667.411 313.662C667.539 309.765 665.723 303.781 665.723 303.781C665.723 303.781 664.677 291.806 664.677 291.286C664.677 290.766 665.576 282.378 665.576 282.378L663.778 275.647L660.334 273.236C659.906 268.041 658.885 261.733 656.445 260.014C655.223 259.057 654.247 257.821 653.601 256.41C653.117 256.477 653.998 256.049 653.998 256.049L654.573 259.53Z" fill="black"/>
<path d="M653.258 255.669C653.882 255.456 654.544 255.384 655.199 255.458C655.854 255.532 656.484 255.751 657.044 256.098C658.769 257.322 662.132 257.218 663.032 256.997C663.931 256.777 673.276 255.572 674.04 255.871C674.805 256.171 676.285 254.825 677.257 256.624C678.23 258.423 678.676 259.39 679.649 259.836C680.621 260.283 682.346 261.709 682.095 262.008C681.844 262.308 684.542 264.101 684.542 264.101L679.086 281.845C679.086 281.845 682.603 304.289 684.321 306.234C686.04 308.18 701.299 333.395 695.838 337.886C691.514 341.288 686.938 344.356 682.15 347.064C681.539 347.364 679.386 343.326 676.395 342.053C673.404 340.78 664.126 323.942 663.551 314.366C662.977 304.79 660.334 283.467 660.334 283.467C660.334 283.467 657.117 271.792 655.998 268.647C654.879 265.502 655.026 258.613 655.026 258.613L653.258 255.669Z" fill="#E89136"/>
<path opacity="0.1" d="M623.014 352.547L624.286 355.239C624.286 355.239 624.464 356.041 624.69 357.313C624.917 357.285 625.13 357.189 625.302 357.038C627.173 355.539 638.145 344.244 638.69 334.215C639.075 326.818 638.892 320.442 638.769 317.603C638.733 316.71 638.696 316.171 638.696 316.055C638.696 316.055 630.17 305.727 631.143 302.068C632.115 298.409 634.36 278.816 634.36 278.816L634.69 276.247L635.259 271.902L636.616 261.39L635.21 261.721C634.971 262.049 634.684 262.34 634.36 262.584L632.904 271.829L627.852 277.397L627.026 311.295L629.351 317.352C629.351 317.352 631.24 317.438 634.188 317.529H634.476L623.014 352.547Z" fill="black"/>
<path d="M618.305 296.591C618.305 296.591 620.397 295.765 620.544 296.591C620.69 297.417 621.069 299.204 621.069 299.204C621.069 299.204 620.696 303.548 622.293 305.268C623.889 306.987 624.128 314.244 624.128 314.244C624.128 314.244 626.647 321.427 625.455 323.673C625.02 324.486 624.348 328.568 623.675 333.463C623.247 336.522 622.825 339.881 622.452 342.953C621.773 348.533 621.265 353.153 621.265 353.153C621.265 353.153 622.617 358.09 624.488 356.591C626.36 355.092 637.332 343.797 637.87 333.768C638.237 326.726 638.09 320.607 637.968 317.591C637.919 316.312 637.87 315.59 637.87 315.59C637.87 315.59 629.344 305.261 630.317 301.596C631.289 297.931 633.534 278.345 633.534 278.345L633.925 275.317L634.347 272.061L634.445 271.346L635.797 260.944C635.558 260.999 627.167 262.896 626.06 264.003C624.953 265.111 618.109 266.695 618.109 266.695C617.077 266.976 616.139 267.528 615.392 268.294C614.646 269.06 614.118 270.012 613.865 271.052C613.798 271.26 613.749 271.48 613.7 271.707C612.801 276.051 613.088 276.571 612.476 277.324C611.865 278.076 618.305 296.591 618.305 296.591Z" fill="#E89136"/>
<path opacity="0.1" d="M622.403 342.947C625.461 342.335 629.999 340.921 629.895 337.801C629.803 334.882 626.293 333.83 623.632 333.456C623.204 336.504 622.782 339.875 622.403 342.947Z" fill="black"/>
<path d="M612.917 341.392C613.039 341.655 613.528 341.882 614.226 342.084C615.862 342.473 617.523 342.745 619.198 342.898C619.198 342.898 629.595 342.072 629.448 337.354C629.338 333.97 624.641 333.071 622.005 332.869C621.422 332.814 620.836 332.79 620.25 332.796C620.25 332.796 612.47 340.426 612.917 341.392Z" fill="#AE6E79"/>
<path opacity="0.1" d="M612.917 341.392C613.039 341.655 613.528 341.882 614.226 342.084C616.935 338.455 620.715 333.799 622.568 333.389L622.005 332.869C621.422 332.814 620.836 332.79 620.25 332.796C620.25 332.796 612.47 340.426 612.917 341.392Z" fill="black"/>
<path d="M615.534 276.822L612.476 277.275C611.372 279.22 610.147 281.094 608.807 282.885C607.985 283.907 607.513 285.167 607.461 286.477C607.461 286.477 602.972 293.134 601.553 293.881C600.134 294.627 597.963 299.718 597.963 299.718C597.963 299.718 594.446 302.037 594.446 304.656C594.384 306.84 594.159 309.016 593.774 311.166C593.694 311.539 594.294 316.183 595.792 318.508C597.29 320.834 598.789 325.961 598.709 326.879C598.63 327.797 602.899 332.569 604.091 334.062C605.087 335.458 605.963 336.936 606.709 338.48L610.672 345.963C610.672 345.963 619.051 333.616 622.115 332.942C622.115 332.942 618.678 329.651 616.959 329.051C615.241 328.451 613.59 323.544 613.516 322.394C613.443 321.244 611.944 317.529 610.379 316.887C608.813 316.245 607.981 315.541 608.654 314.488C609.327 313.436 608.654 311.429 608.654 311.429C608.654 311.429 613.07 305.592 613.669 302.251C614.268 298.91 618.305 296.64 618.305 296.64L620.623 290.95L615.534 276.822Z" fill="#E89136"/>
<path opacity="0.1" d="M604.409 304.754C602.717 303.324 600.587 302.517 598.373 302.465C599.792 302.71 601.284 303.022 602.324 304.013C602.732 304.442 603.099 304.91 603.419 305.408C603.773 305.916 606.66 309.587 607.088 309.006C607.804 308.156 604.99 305.249 604.409 304.754Z" fill="black"/>
<path opacity="0.1" d="M611.186 301.211C610.728 301.171 610.289 301.011 609.914 300.745C609.539 300.479 609.241 300.118 609.052 299.7C608.687 298.856 608.462 297.96 608.385 297.044C608.166 295.512 607.858 293.994 607.461 292.498C607.342 292.202 607.292 291.883 607.314 291.565C607.337 291.247 607.431 290.939 607.59 290.662C607.754 290.184 607.976 289.728 608.25 289.304C608.801 289.916 608.96 291.341 609.186 292.161C609.467 293.177 609.724 294.199 609.969 295.221C610.097 295.71 611.113 301.211 611.186 301.211Z" fill="black"/>
<path opacity="0.1" d="M613.834 271.003C614.136 271.397 614.483 271.755 614.868 272.068C616.091 273.04 617.712 273.86 617.865 275.396C617.822 275.895 617.885 276.397 618.048 276.871C618.44 277.544 619.4 277.483 620.164 277.354C620.809 277.296 621.428 277.068 621.956 276.693C622.757 276.008 622.831 274.784 623.442 273.922C623.814 273.476 624.283 273.123 624.814 272.888C625.344 272.654 625.921 272.544 626.5 272.569C627.644 272.533 628.782 272.79 629.925 272.839C630.661 272.876 631.397 272.826 632.121 272.692C632.36 272.655 632.597 272.606 632.831 272.545C633.342 272.419 633.841 272.249 634.323 272.037C634.572 271.938 634.815 271.823 635.051 271.694C635.816 271.301 636.526 270.807 637.161 270.226C638.28 269.198 639.21 267.778 639.118 266.255C639.063 265.319 638.641 264.456 638.506 263.532C638.048 260.889 639.803 258.392 641.705 256.502C642.463 255.749 643.271 255.021 644.029 254.256C645.21 253.166 646.142 251.835 646.763 250.352C647.273 248.774 647.44 247.105 647.252 245.457C647.08 243.787 647.033 242.105 647.111 240.428C647.674 234.48 652.75 229.922 657.827 227.444L658.053 227.328C656.547 225.599 654.694 224.207 652.613 223.243C650.533 222.28 648.273 221.766 645.981 221.735C643.689 221.705 641.416 222.158 639.311 223.066C637.206 223.974 635.316 225.316 633.765 227.005C632.213 228.693 631.036 230.69 630.308 232.865C629.58 235.04 629.32 237.343 629.543 239.626C629.766 241.908 630.467 244.118 631.602 246.111C632.736 248.104 634.278 249.835 636.127 251.191C636.182 251.38 636.231 251.57 636.274 251.754C637.448 256.453 636.671 259.304 635.797 260.876C635.558 260.932 627.167 262.828 626.06 263.936C624.953 265.043 618.109 266.628 618.109 266.628C617.069 266.905 616.123 267.458 615.371 268.228C614.618 268.998 614.087 269.956 613.834 271.003Z" fill="black"/>
<path d="M659.129 223.014C658.793 222.629 658.285 222.433 657.943 222.059C656.885 220.909 657.943 219.031 657.558 217.513C657.142 215.831 655.075 215.096 653.35 215.274C651.625 215.451 650.01 216.247 648.286 216.443C645.607 216.742 643.014 215.58 640.402 214.901C637.791 214.221 634.635 214.185 632.837 216.186C631.039 218.186 631.161 221.594 628.922 223.045C627.889 223.712 626.586 223.785 625.467 224.268C624.242 224.897 623.226 225.869 622.543 227.065C620.772 229.848 619.992 233.149 620.329 236.432C620.519 238.207 621.033 239.932 621.241 241.707C621.452 243.549 621.327 245.415 620.874 247.213C620.403 249.049 619.381 251.031 617.553 251.619C617.13 251.712 616.72 251.854 616.33 252.041C615.271 252.702 615.412 254.256 615.681 255.468L616.77 260.491C615.724 261.286 614.097 260.944 613.1 261.782C612.701 262.147 612.405 262.612 612.244 263.128C611.752 264.533 611.699 266.054 612.091 267.49C612.483 268.926 613.302 270.209 614.44 271.168C615.663 272.141 617.284 272.961 617.437 274.491C617.39 274.99 617.453 275.493 617.62 275.965C618.005 276.638 618.972 276.577 619.736 276.449C620.379 276.389 620.995 276.161 621.522 275.788C622.329 275.102 622.397 273.879 623.008 273.016C623.38 272.571 623.85 272.218 624.38 271.984C624.91 271.749 625.487 271.64 626.066 271.664C627.216 271.627 628.348 271.884 629.497 271.939C632.149 272.048 634.738 271.112 636.708 269.332C637.833 268.298 638.757 266.885 638.671 265.355C638.616 264.425 638.194 263.556 638.06 262.633C637.607 259.995 639.356 257.493 641.258 255.602C643.161 253.711 645.393 251.968 646.323 249.453C647.485 246.338 646.359 242.863 646.671 239.559C647.234 233.605 652.304 229.053 657.386 226.569C658.518 225.988 660.444 224.513 659.129 223.014Z" fill="#2D2B26"/>
<path opacity="0.1" d="M619.131 274.399C619.938 273.707 620.005 272.49 620.617 271.627C620.989 271.182 621.458 270.828 621.988 270.593C622.518 270.357 623.095 270.246 623.675 270.269C624.825 270.232 625.962 270.489 627.106 270.544C629.768 270.661 632.368 269.722 634.341 267.931C635.467 266.903 636.384 265.484 636.298 263.96C636.243 263.024 635.821 262.155 635.687 261.237C635.228 258.594 636.983 256.092 638.885 254.201C640.788 252.31 643.014 250.566 643.95 248.052C645.105 244.943 643.95 241.468 644.292 238.158C644.861 232.204 649.931 227.652 655.007 225.168C656.194 224.587 658.12 223.112 656.805 221.613C656.475 221.227 655.968 221.032 655.625 220.658C654.567 219.514 655.625 217.63 655.234 216.118C655.158 215.817 655.028 215.533 654.848 215.28C656.127 215.519 657.295 216.241 657.607 217.464C657.98 218.982 656.934 220.86 657.992 222.011C658.334 222.384 658.842 222.58 659.178 222.959C660.493 224.458 658.567 225.939 657.38 226.514C652.298 228.998 647.228 233.557 646.665 239.504C646.353 242.814 647.479 246.29 646.316 249.404C645.387 251.913 643.154 253.687 641.252 255.553C639.35 257.419 637.583 259.94 638.054 262.584C638.311 263.478 638.516 264.387 638.665 265.306C638.751 266.83 637.827 268.25 636.702 269.277C634.732 271.069 632.133 272.008 629.473 271.89C628.323 271.835 627.192 271.584 626.042 271.615C625.462 271.593 624.886 271.704 624.356 271.94C623.826 272.175 623.356 272.529 622.984 272.973C622.372 273.836 622.305 275.06 621.498 275.745C620.97 276.116 620.354 276.342 619.712 276.4C618.947 276.54 617.981 276.589 617.596 275.922C617.458 275.65 617.399 275.345 617.424 275.041C618.04 274.981 618.628 274.759 619.131 274.399Z" fill="black"/>
<defs>
<linearGradient id="paint0_linear" x1="664.695" y1="500.748" x2="664.695" y2="213.934" gradientUnits="userSpaceOnUse">
<stop stop-color="#808080" stop-opacity="0.25"/>
<stop offset="0.54" stop-color="#808080" stop-opacity="0.12"/>
<stop offset="1" stop-color="#808080" stop-opacity="0.1"/>
</linearGradient>
</defs>
</svg>
