<svg width="303" height="241" viewBox="0 0 303 241" fill="none" xmlns="http://www.w3.org/2000/svg">
<g clip-path="url(#clip0)">
<path opacity="0.2" d="M34.0163 225.312L3.8253 180.327L33.9546 230.152L33.8916 235.214C36.0957 235.231 38.2783 235.194 40.4396 235.103L38.9422 170.036L38.9832 169.534L38.9279 169.437L38.7846 163.288L71.8474 115.191L38.8236 158.686L38.7064 159.986L37.5754 110.825L66.1327 60.9589L37.4941 102.188L37.793 0.338981L37.7924 0L37.7826 0.333385L35.887 80.6045L9.86036 47.9983L35.8017 87.5197L35.2337 131.493L11.2839 88.5767L35.1457 137.958L34.8295 162.41L-3.10082e-05 102.627L34.7236 170.94L34.0163 225.312Z" fill="#FEC232"/>
<path opacity="0.2" d="M149.498 241C78.8109 241 21.5075 238.074 21.5075 234.465C21.5075 230.857 78.8109 227.931 149.498 227.931C220.185 227.931 277.489 230.857 277.489 234.465C277.489 238.074 220.185 241 149.498 241Z" fill="#FEC232"/>
<path d="M74.7137 239.034C72.574 239.034 70.8395 237.296 70.8395 235.152C70.8395 233.008 72.574 231.27 74.7137 231.27C76.8534 231.27 78.588 233.008 78.588 235.152C78.588 237.296 76.8534 239.034 74.7137 239.034Z" fill="#3F3D56"/>
<path d="M74.1854 154.515L84.3994 127.343C84.3994 127.343 82.8145 122.226 87.041 122.578C91.2674 122.931 102.538 126.813 102.538 126.813C102.538 126.813 106.412 127.166 101.129 132.636L91.9718 161.397L88.9781 159.985L98.8398 131.401C98.8398 131.401 99.3681 129.46 97.431 128.931C95.4939 128.401 88.0976 125.225 87.3931 127.166C86.6887 129.107 77.5314 156.986 77.5314 156.986L74.1854 154.515Z" fill="#3F3D56"/>
<path d="M101.658 173.219L81.934 232.328C80.3384 233.389 78.6068 234.227 76.7865 234.822C75.1407 235.388 73.4439 235.794 71.72 236.034C71.078 236.084 70.4319 236.033 69.8058 235.882C59.664 233.853 24.8767 215.213 24.8767 215.213C24.8767 215.213 42.6631 159.632 45.6568 152.927C48.6506 146.222 55.3425 148.693 55.3425 148.693C55.3425 148.693 89.1454 157.838 93.997 159.537C94.0974 159.572 94.1855 159.604 94.2612 159.632C96.398 160.405 98.2431 161.822 99.5425 163.689L99.5443 163.691C104.475 166.69 101.658 173.219 101.658 173.219Z" fill="#BECC30"/>
<path opacity="0.2" d="M87.4995 157.396L87.4042 157.736C85.8779 157.307 84.5773 160.719 84.5644 160.753L62.9045 220.919L62.5732 220.8L65.3197 213.171L35.8191 200.115L33.496 206.802L33.1634 206.686L52.5412 150.909L52.5519 150.893C52.6207 150.783 54.2543 148.225 56.1926 148.74L56.1025 149.081C54.4833 148.65 52.9987 150.853 52.8604 151.065L48.7589 162.87L79.7712 173.028L84.2339 160.631C84.2922 160.476 85.6621 156.88 87.4995 157.396ZM48.6431 163.203L45.6218 171.9L76.1525 183.08L79.6517 173.36L48.6431 163.203ZM72.5478 193.093L76.033 183.412L45.5059 172.233L42.5063 180.867L72.5478 193.093ZM42.3904 181.201L39.1019 190.666L69.0925 202.691L72.4282 193.425L42.3904 181.201ZM65.4395 212.838L68.9729 203.023L38.986 191L35.9353 199.781L65.4395 212.838Z" fill="black"/>
<path opacity="0.2" d="M99.5442 171.101C97.7832 173.925 78.0597 233.034 78.0597 233.034C77.6943 233.67 77.2679 234.269 76.7865 234.822C75.1406 235.389 73.4439 235.795 71.72 236.034C71.078 236.085 70.432 236.033 69.8058 235.882C71.0174 235.445 73.7241 234.028 75.066 229.858C76.827 224.388 96.1983 166.69 96.1983 166.69C96.1983 166.69 95.5925 162.339 93.997 159.537C94.0974 159.572 94.1854 159.604 94.2611 159.632C96.3979 160.405 98.2431 161.822 99.5424 163.689L99.5442 163.691C99.5442 163.691 101.305 168.278 99.5442 171.101Z" fill="black"/>
<path d="M96.0222 184.159L94.0851 190.158C94.0851 190.158 95.67 201.98 87.3931 209.743L85.6321 215.743L87.4518 215.792L89.3737 210.032C89.3737 210.032 95.7579 202.316 95.802 190.767L97.431 184.159H96.0222Z" fill="#3F3D56"/>
<path d="M62.8269 239.122C60.6872 239.122 58.9526 237.384 58.9526 235.24C58.9526 233.096 60.6872 231.358 62.8269 231.358C64.9666 231.358 66.7012 233.096 66.7012 235.24C66.7012 237.384 64.9666 239.122 62.8269 239.122Z" fill="#3F3D56"/>
<path d="M25.229 222.8C23.0893 222.8 21.3547 221.062 21.3547 218.919C21.3547 216.775 23.0893 215.037 25.229 215.037C27.3687 215.037 29.1033 216.775 29.1033 218.919C29.1033 221.062 27.3687 222.8 25.229 222.8Z" fill="#3F3D56"/>
<path d="M164.376 53.744C164.376 53.744 173.344 55.3776 173.751 59.0533C173.984 61.6346 173.984 64.2318 173.751 66.8131L164.376 53.744Z" fill="#FAA835"/>
<path d="M113.017 139.51C113.017 139.51 139.104 148.904 156.224 140.735C173.344 132.567 194.132 122.357 194.132 122.357C194.132 122.357 204.322 123.174 203.099 117.048C201.876 110.921 193.724 75.3897 174.974 63.5458C174.974 63.5458 163.561 48.843 157.039 49.6599C150.517 50.4767 125.245 110.921 125.245 110.921L113.017 139.51Z" fill="#575A89"/>
<path d="M113.017 139.51C113.017 139.51 139.104 148.904 156.224 140.735C173.344 132.567 194.132 122.357 194.132 122.357C194.132 122.357 204.322 123.174 203.099 117.048C201.876 110.921 193.724 75.3897 174.974 63.5458C174.974 63.5458 163.561 48.843 157.039 49.6599C150.517 50.4767 125.245 110.921 125.245 110.921L113.017 139.51Z" fill="#E89136"/>
<path d="M99.1579 117.456L97.5274 121.54C97.5274 121.54 86.9295 128.075 91.4132 132.567C95.897 137.06 102.646 125.012 102.646 125.012L105.272 119.906L99.1579 117.456Z" fill="#A0616A"/>
<path d="M188.425 190.561L190.056 218.742L181.496 222.417L178.235 188.519L188.425 190.561Z" fill="#FFD9B1"/>
<path d="M153.778 190.561L142.365 205.264L139.104 215.066L130.952 214.657L128.914 204.856L140.327 193.42L153.778 190.561Z" fill="#FFD9B1"/>
<path d="M154.797 46.1884C148.719 46.1884 143.792 41.2514 143.792 35.1613C143.792 29.0712 148.719 24.1342 154.797 24.1342C160.875 24.1342 165.803 29.0712 165.803 35.1613C165.803 41.2514 160.875 46.1884 154.797 46.1884Z" fill="#F8D0A7"/>
<path d="M157.039 43.5337L156.224 53.7439L143.18 49.6598C143.18 49.6598 148.071 41.9001 146.849 39.858L157.039 43.5337Z" fill="#F8D0A7"/>
<path d="M157.039 49.6599C157.039 49.6599 149.316 51.7019 144.822 46.801L135.435 51.2935L147.664 97.0354L173.344 90.0925L169.267 81.1074C169.267 81.1074 174.566 74.9813 168.86 69.2635C168.86 69.2635 167.637 57.8281 163.968 55.3776C161.5 53.6736 159.181 51.7607 157.039 49.6599Z" fill="#E6E7E8"/>
<path d="M145.014 46.5968C145.014 46.5968 158.873 57.6238 143.792 90.2966C128.71 122.969 116.074 150.741 111.182 149.108C106.291 147.474 89.5789 134.813 95.2855 130.321C100.992 125.828 125.041 111.534 128.302 92.7471C131.563 73.9602 123.818 54.765 123.818 54.765L145.014 46.5968Z" fill="#FAA835"/>
<path d="M129.729 59.0533L94.6741 118.273L104.457 122.357L134.62 81.5158L129.729 59.0533Z" fill="#FAA835"/>
<path d="M171.305 88.8672H174.159L184.757 111.738C184.757 111.738 204.73 172.183 202.692 184.435C200.654 196.687 124.836 195.039 128.914 194.645C132.793 194.271 152.977 101.141 147.052 96.0144L171.305 88.8672Z" fill="#AC9393"/>
<path d="M187.202 215.474C187.202 215.474 188.018 212.207 191.279 212.207C194.539 212.207 194.539 216.7 194.539 216.7L203.915 225.276C203.915 225.276 212.067 235.487 201.469 235.487C190.871 235.487 190.871 233.036 190.871 233.036C190.871 233.036 188.018 230.177 185.572 231.811C183.126 233.444 177.42 230.177 178.235 228.544C179.05 226.91 180.268 216.341 181.086 218.154C181.903 219.967 187.202 215.474 187.202 215.474Z" fill="#595854"/>
<path d="M132.99 210.573C132.99 210.573 132.175 210.165 136.251 210.573C140.327 210.982 141.957 210.573 141.957 210.573L139.104 221.601C139.104 221.601 141.55 240.387 133.397 238.754C125.245 237.12 125.245 225.685 125.245 225.685C125.245 225.685 126.468 215.474 125.653 214.658C124.837 213.841 125.245 202.814 126.468 202.814C127.691 202.814 133.593 200.167 133.593 200.167C133.593 200.167 129.729 210.573 132.99 210.573Z" fill="#595854"/>
<path d="M154.463 35.8214C155.147 34.7654 154.801 33.3295 155.281 32.1657C156.036 30.3381 158.379 29.91 160.346 29.7433C161.649 29.5757 162.968 29.5792 164.27 29.7538C164.845 29.8496 165.391 30.0781 165.863 30.4212C166.335 30.7643 166.722 31.2126 166.991 31.7308C167.282 32.3155 167.209 30.4835 167.022 28.1319C166.834 25.732 165.889 23.4542 164.326 21.6266C162.762 19.7989 160.66 18.5159 158.322 17.9622C158.294 17.9557 158.266 17.9492 158.239 17.9429C155.845 17.3895 153.376 16.9822 150.935 17.2695C148.494 17.5568 146.062 18.6124 144.539 20.5445C143.842 21.4276 143.35 22.469 142.573 23.2815C141.208 24.709 139.184 25.2284 137.324 25.8908C135.193 26.5796 133.231 27.7135 131.569 29.2178C129.961 30.768 128.821 32.8924 128.787 35.1282C128.748 37.7363 130.403 40.4279 133.072 40.9421C133.535 41.0231 133.974 41.2127 134.351 41.4953C136.899 43.4745 133.992 45.5464 134.013 47.7745C134.029 49.6337 136.095 50.8455 137.949 50.9321C139.682 50.9634 141.372 50.3897 142.729 49.3094C144.086 48.2292 145.026 46.7096 145.387 45.0111C145.667 43.4853 145.451 41.9182 145.269 40.3777C145.061 38.6142 148.851 34.4619 146.348 37.5054C145.859 38.0839 145.529 38.7799 145.39 39.5249C144.974 41.9563 147.182 42.7741 148.575 44.1214C149.339 44.8834 149.875 45.8449 150.122 46.8968C150.369 47.9487 150.317 49.0488 149.971 50.0724C151.12 49.0301 151.869 47.6188 152.09 46.0821C152.31 44.5454 151.989 42.9798 151.18 41.6553C150.732 40.9659 150.154 40.3663 149.728 39.6623C149.065 38.5639 148.882 36.1748 150.739 36.2404C152.066 36.2873 153.443 37.3935 154.463 35.8214Z" fill="#2F2E41"/>
<path opacity="0.2" d="M247.061 229.459C247.061 229.459 263.425 199.195 303 212.281L247.061 229.459Z" fill="#FEC232"/>
<path opacity="0.2" d="M246.074 228.72C246.074 228.72 266.312 202.945 237.102 170.792L246.074 228.72Z" fill="#FEC232"/>
</g>
<defs>
<clipPath id="clip0">
<rect width="303" height="241" transform="matrix(-1 0 0 1 303 0)" fill="white"/>
</clipPath>
</defs>
</svg>
