<svg width="333" height="78" viewBox="0 0 333 78" fill="none" xmlns="http://www.w3.org/2000/svg">
<g clip-path="url(#clip0)">
<path d="M0 20C0 8.9543 8.95431 0 20 0H313C324.046 0 333 8.95431 333 20V78H0V20Z" fill="#FAA836"/>
<path d="M111.413 45.0847C112.683 55.2297 111.932 73.6906 108.776 89.8747C105.621 106.059 101.324 109.078 97.961 108.998C94.5981 108.919 91.5667 92.8942 91.5667 92.8942C91.5667 92.8942 90.2916 86.9349 91.5667 73.3469C92.8418 59.759 93.1213 58.9735 94.598 52.6336C96.802 43.1721 97.3203 32 101.324 32C108.01 32 110.142 34.9397 111.413 45.0847Z" fill="#FFC233"/>
<path d="M62.6084 34.4442C63.4553 45.6431 62.9547 66.0221 60.851 83.8876C58.7472 101.753 55.8826 105.086 53.6407 104.998C51.3987 104.91 49.3778 87.2209 49.3778 87.2209C49.3778 87.2209 48.5277 80.6424 49.3778 65.6427C50.2279 50.643 50.4142 49.7759 51.3987 42.7773C52.868 32.3328 53.2135 20 55.8826 20C60.34 20 61.7615 23.2452 62.6084 34.4442Z" fill="#FFC233"/>
<path d="M139.552 27.6401C140.962 37.7657 138.897 70.758 135.397 86.9112C131.897 103.064 127.13 106.078 123.4 105.998C119.67 105.919 116.308 89.925 116.308 89.925C116.308 89.925 108.591 95.4502 113.814 83.8974C119.036 72.3446 117.398 69.631 119.036 63.3032C121.481 53.8598 122.802 -3 127.243 -3C134.659 -3 138.143 17.5145 139.552 27.6401Z" fill="#FFC233"/>
<path d="M72.8603 42.1747C71.2649 32.1464 71.3314 13.7907 73.8114 -2.3886C76.2913 -18.5679 80.3499 -21.7163 83.6137 -21.7548C86.8776 -21.7933 90.3914 -5.98904 90.3914 -5.98904C90.3914 -5.98904 91.8415 -0.116817 91.092 13.419C90.3426 26.9549 90.0997 27.7446 88.8949 34.091C87.0968 43.5623 86.9946 54.673 83.1124 54.8131C76.6287 55.0471 74.4558 52.203 72.8603 42.1747Z" fill="#FFC233"/>
<path d="M250.329 -2.16358C251.781 4.68756 250.922 17.1547 247.316 28.0842C243.71 39.0137 238.799 41.0528 234.955 40.999C231.112 40.9451 227.648 30.1234 227.648 30.1234C227.648 30.1234 226.19 26.0989 227.648 16.9226C229.105 7.74633 229.424 7.21584 231.112 2.93436C233.631 -3.4552 234.223 -11 238.799 -11C246.44 -11 248.877 -9.01472 250.329 -2.16358Z" fill="#FFC233"/>
<path d="M48.3287 2.83642C49.7805 9.68756 48.9223 22.1547 45.3159 33.0842C41.7096 44.0137 36.7987 46.0528 32.9554 45.999C29.1121 45.9451 25.6477 35.1234 25.6477 35.1234C25.6477 35.1234 24.1904 31.0989 25.6477 21.9226C27.1049 12.7463 27.4243 12.2158 29.112 7.93436C31.6308 1.5448 32.2232 -6 36.7987 -6C44.4401 -6 46.8768 -4.01472 48.3287 2.83642Z" fill="#FFC233"/>
<path d="M196.14 4.20758C199.983 15.6634 205.278 40.6016 207.196 59.8884C209.113 79.1752 209.572 97.4866 206.816 98.051C204.06 98.6153 195.928 80.4013 195.928 80.4013C195.928 80.4013 192.366 66.5192 189.639 50.5945C186.912 34.6698 185.117 23.8007 184.561 16.1984C183.732 4.85297 181.059 -8.13697 184.314 -8.91842C189.75 -10.2235 192.297 -7.24824 196.14 4.20758Z" fill="#FFC233"/>
<path d="M297.699 51.3127C295.87 41.9187 294.828 21.7892 296.106 6.4488C297.385 -8.8916 299.902 -23.3141 302.631 -23.4694C305.361 -23.6247 310.205 -8.47769 310.205 -8.47769C310.205 -8.47769 311.373 2.7917 311.412 15.5774C311.452 28.3631 311.415 37.0828 310.72 43.1086C309.681 52.1014 310.143 62.5777 306.901 62.8513C301.487 63.3084 299.528 60.7068 297.699 51.3127Z" fill="#FFC233"/>
<path d="M229.595 54.433C230.471 61.3482 229.953 73.9318 227.776 84.9635C225.598 95.9951 222.633 98.0533 220.313 97.999C217.993 97.9446 215.901 87.0217 215.901 87.0217C215.901 87.0217 214.396 89.5985 215.276 80.3364C216.156 71.0744 216.973 63.9001 217.992 59.5786C219.513 53.1293 222.096 44 224.858 44C229.472 44 228.718 47.5179 229.595 54.433Z" fill="#FFC233"/>
<path d="M281.199 92C283.075 98.8511 281.966 89.6547 277.308 100.584C272.65 111.514 266.306 113.553 261.342 113.499C256.378 113.445 251.903 102.623 251.903 102.623C251.903 102.623 247.594 109.76 249.476 100.584C251.358 91.4079 259.162 96.2815 261.342 92C264.596 85.6104 278.066 32 283.976 32C293.846 32 279.324 85.1489 281.199 92Z" fill="#FFC233"/>
<path d="M261.056 -1.87419C259.583 -8.92342 260.38 0.522545 264.438 -10.634C268.495 -21.7905 273.837 -23.8084 277.994 -23.6954C282.151 -23.5824 285.744 -12.4302 285.744 -12.4302C285.744 -12.4302 289.456 -19.7008 287.748 -10.3103C286.041 -0.919838 279.574 -6.00957 277.687 -1.64328C274.871 4.87285 262.826 59.706 257.876 59.6373C249.609 59.5225 262.529 5.17503 261.056 -1.87419Z" fill="#FFC233"/>
<path d="M152.325 46.5C149.925 30.1 151.325 8.66667 152.325 0H157.325C158.325 17.3333 160.825 50.5 162.825 44.5C164.825 38.5 167.659 12.3333 168.825 0H178.325C176.825 8.66667 173.425 28.3 171.825 37.5C170.225 46.7 173.825 70.6667 175.825 81.5H154.825C154.992 76.6667 154.725 62.9 152.325 46.5Z" fill="#FFC233"/>
</g>
<defs>
<clipPath id="clip0">
<rect width="333" height="78" fill="white"/>
</clipPath>
</defs>
</svg>
