<svg width="542" height="656" viewBox="0 0 542 656" fill="none" xmlns="http://www.w3.org/2000/svg">
<g opacity="0.2">
<path d="M333 562C488.744 562 615 436.64 615 282C615 127.36 488.744 2 333 2C177.256 2 51 127.36 51 282C51 436.64 177.256 562 333 562Z" stroke="#FAA835" stroke-width="4" stroke-miterlimit="10" stroke-dasharray="12.07 15.09"/>
<path opacity="0.2" d="M558.072 19.6881H399.009V93.6792H558.072V19.6881Z" fill="#B468A2"/>
<path d="M544.567 2H374V82.3729H544.567V2Z" fill="url(#paint0_linear)"/>
<path d="M539.335 3.91376H380.272V77.9049H539.335V3.91376Z" fill="white"/>
<path opacity="0.3" d="M497.162 20.093H404.374V28.8744H497.162V20.093Z" fill="#B468A2"/>
<path d="M452.495 40.188H404.374V48.9694H452.495V40.188Z" fill="#B468A2"/>
<path opacity="0.2" d="M393.868 232.722H22.8097V332.277H393.868V232.722Z" fill="#E89136"/>
<path d="M376.46 211H0V317.003H376.46V211Z" fill="url(#paint1_linear)"/>
<path d="M373.759 214.592H2.70093V313.411H373.759V214.592Z" fill="white"/>
<path d="M93.3789 301.03C113.879 301.03 130.497 284.454 130.497 264.005C130.497 243.557 113.879 226.98 93.3789 226.98C72.879 226.98 56.2605 243.557 56.2605 264.005C56.2605 284.454 72.879 301.03 93.3789 301.03Z" fill="url(#paint2_linear)"/>
<path d="M93.379 296.916C111.601 296.916 126.372 282.181 126.372 264.005C126.372 245.83 111.601 231.095 93.379 231.095C75.1573 231.095 60.3857 245.83 60.3857 264.005C60.3857 282.181 75.1573 296.916 93.379 296.916Z" fill="#FAA835"/>
<g opacity="0.2">
<path opacity="0.2" d="M217.102 239.324H158.332V249.608H217.102V239.324Z" fill="#E89136"/>
<path opacity="0.2" d="M320.199 258.86H158.332V269.143H320.199V258.86Z" fill="#E89136"/>
<path opacity="0.2" d="M320.199 278.403H158.332V288.686H320.199V278.403Z" fill="#E89136"/>
</g>
<path d="M115.03 250.807L107.783 245.294L88.6855 270.255L78.0296 262.143L72.5024 269.364L86.789 280.243L86.8259 280.192L90.4418 282.945L115.03 250.807Z" fill="white"/>
<path opacity="0.2" d="M479.138 476.711H197.26V655.557H479.138V476.711Z" fill="#E89136"/>
<path d="M464.254 451H141V634.145H464.254V451Z" fill="url(#paint3_linear)"/>
<path d="M459.945 477.661H144.446V629.853H459.945V477.661Z" fill="white"/>
<path d="M275.475 490.557H166.001V605.776H275.475V490.557Z" fill="url(#paint4_linear)"/>
<path d="M272.892 493.133H169.448V603.193H272.892V493.133Z" fill="#FAA835"/>
<path d="M250.06 536.592C249.248 530.055 248.134 523.482 245.632 517.387C243.131 511.293 239.094 505.654 233.486 502.18C231.487 500.839 229.173 500.04 226.771 499.861C222.343 499.707 218.321 502.658 216.056 506.42C215.29 507.721 214.621 509.076 214.056 510.476C211.964 510.83 210.052 511.875 208.626 513.444C207.201 515.012 206.346 517.013 206.197 519.124C201.558 521.096 197.654 524.466 195.033 528.763C192.412 533.059 191.205 538.067 191.582 543.082C191.959 548.098 193.9 552.87 197.134 556.729C200.368 560.588 204.732 563.34 209.614 564.6V568.707C204.441 570.057 199.861 573.075 196.587 577.291C193.313 581.507 191.528 586.686 191.512 592.019V603.2H239.788V592.019C239.771 586.686 237.987 581.507 234.713 577.291C231.439 573.075 226.859 570.057 221.686 568.707V564.6C226.868 563.263 231.457 560.248 234.734 556.027C238.01 551.806 239.788 546.619 239.788 541.281C239.788 541.222 239.788 541.17 239.788 541.111L242.504 547.14C245.086 552.881 247.736 559.05 246.732 565.262C251.676 556.812 251.263 546.323 250.06 536.592Z" fill="white"/>
<path d="M459.945 454.445H144.446V477.661H459.945V454.445Z" fill="#FAA835"/>
<path d="M434.944 525.381H315.124V533.117H434.944V525.381Z" fill="#E0E0E0"/>
<path d="M434.944 558.056H315.124V565.792H434.944V558.056Z" fill="#F5F5F5"/>
<path opacity="0.2" d="M384.948 541.715H314.261V549.451H384.948V541.715Z" fill="#E89136"/>
<path opacity="0.2" d="M362.537 574.39H314.261V582.126H362.537V574.39Z" fill="#27A9E1"/>
<path d="M419.432 574.39H371.156V582.126H419.432V574.39Z" fill="#27A9E1"/>
</g>
<defs>
<linearGradient id="paint0_linear" x1="128136" y1="17831.1" x2="128136" y2="9055.2" gradientUnits="userSpaceOnUse">
<stop stop-color="#808080" stop-opacity="0.25"/>
<stop offset="0.54" stop-color="#808080" stop-opacity="0.12"/>
<stop offset="1" stop-color="#808080" stop-opacity="0.1"/>
</linearGradient>
<linearGradient id="paint1_linear" x1="236552" y1="71439.9" x2="236552" y2="56173.3" gradientUnits="userSpaceOnUse">
<stop stop-color="#808080" stop-opacity="0.25"/>
<stop offset="0.54" stop-color="#808080" stop-opacity="0.12"/>
<stop offset="1" stop-color="#808080" stop-opacity="0.1"/>
</linearGradient>
<linearGradient id="paint2_linear" x1="37162" y1="48377.2" x2="37162" y2="40927.8" gradientUnits="userSpaceOnUse">
<stop stop-color="#808080" stop-opacity="0.25"/>
<stop offset="0.54" stop-color="#808080" stop-opacity="0.12"/>
<stop offset="1" stop-color="#808080" stop-opacity="0.1"/>
</linearGradient>
<linearGradient id="paint3_linear" x1="302.624" y1="634.152" x2="302.624" y2="451" gradientUnits="userSpaceOnUse">
<stop stop-color="#808080" stop-opacity="0.25"/>
<stop offset="0.54" stop-color="#808080" stop-opacity="0.12"/>
<stop offset="1" stop-color="#808080" stop-opacity="0.1"/>
</linearGradient>
<linearGradient id="paint4_linear" x1="3874.96" y1="24336.3" x2="20115.3" y2="24336.3" gradientUnits="userSpaceOnUse">
<stop stop-color="#808080" stop-opacity="0.25"/>
<stop offset="0.54" stop-color="#808080" stop-opacity="0.12"/>
<stop offset="1" stop-color="#808080" stop-opacity="0.1"/>
</linearGradient>
</defs>
</svg>
